<svg viewBox="0 0 802 162" xmlns="http://www.w3.org/2000/svg"><g fill="#fff"><path d="m184.2092 96.6519c11.0832-7.117-5.6675-26.3129-16.7959-8.7421 2.03-12.9705-7.1328-19.21-17.0155-8.6154.5177-29.9374-27.8079-41.1277-45.4825-20.8988 5.4352-48.9042-82.3392-44.4-60.3957 11.4578-12.1519-14.2018-33.1338-1.6126-17.8472 17.9446-18.0842-17.8087-40.7686 12.8826-11.8852 18.63 26.1781 5.2093 55.7627 3.4765 82.411 3.6213 28.67.1558 57.87.3747 86.5009-1.33 16.1742-.9626 17.573-16.6993.5101-12.0674z"/><path d="m487.5022 127.2252c3.2015-14.063-14.3193-24.2117-24.9667-14.89 22.109-31.8186-32.551-61.4252-42.8555-20.3852 4.535-79.6207-108.7617-83.8169-78.3044.9125-22.0624-40.5625-92.3209-16.8352-72.148 27.9507-9.8637-12.9548-19.3484 3.0393-16.8661 11.8955-24.3178-8.6568-35.3327 25.9616-3.6765 28.2 39.0459 2.76 86.3964-5.2037 125.7562-5.3851 40.1721-.1852 71.6485-3.8305 111.8884-4.3173 33.3481-.4038 24.4312-34.4977 1.1726-23.9811z"/><path d="m786.5549 79.3985c8.5739-15.3325-5.133-39.4833-24.0427-15.441 22.7564-34.1836-24.8022-63.4467-40.8901-17.2081 7.6947-62.786-81.8281-60.3381-70.2862-.5138-15.2254-29.3108-61.1933-17.9424-61.22 14.9253-17.2306-5.9482-23.4085 8.8284-12.7329 27.9126-11.0253-12.09-31.7639 14.7481 3.3124 14.7418 29.7951-.0054 67.962-3.9563 97.7439-4.8469 31.3622-.9378 62.7172-1.223 94.0787-.4063 44.2235 1.1515 27.006-26.4746 14.0369-19.1636z"/></g></svg>