<svg viewBox="0 0 802 140" xmlns="http://www.w3.org/2000/svg"><g fill="#fff"><path d="m604.4271 88.7259c1.9877-12.3175-12.8471-20.8844-22.5221-13.0059 8.8947-20.56-25.97-29.4074-28.7112-7.1746 4.2876-34.7695-51.3993-28.119-35.3265 12.12-8.3007-10.4707-21.7054-.88-13.5223 15.7266 3.1013 6.2938 25.1123 7.2088 34.1332 7.2088s25.7441-.0749 36.9787.29c14.26.4628 29.3686-1.2889 33.731-6.0535 8.8193-9.6329 1.0565-19.1934-4.7608-9.1114z"/><path d="m252.838 51.9142c2.4359-21.5662-32.93-29.955-33.2266-3.0122.2965-37.4241-37.4615-16.6754-32.97 3.2178-11.11-12.6372-29.5188 1.4973-16.5268 15.3956 6.378 6.8228 29.88 2.5847 55.1862 2.5847s38.988 1.3009 44.7751-2.15c13.333-7.9494-2.578-27.809-17.2379-16.0359z"/><path d="m437.02 120.0463c7.52-26.8563-14.4413-42.5432-35.8441-22.8336 3.72-20.9455-37.6349-33.6847-48.5093-4.2334 7.452-29.1661-37.3254-21.5783-31.043 1.3108-15.409-18.0229-33.6622 4.6035-20.6422 23.7945-11.6121-4.0985-12.6048 7.8332-9.24 14.4825 3.7373 7.3843 15.8192 5.5787 27.2769 6.3582s58.1045.4047 79.6005-.079c17.1869-.3868 32.6069 1.2955 49.3027-5.4926 16.0121-6.5099.8962-22.7667-10.9015-13.3074z"/><path d="m99.0352 91.5138c13.81-29.4491-40.95-47.665-52.9286-12.2994-.8557-19.4406-24.1713-12.9769-18.4881 3.4063-14.9865-9.45-30.435-.0152-25.7725 17.1285 2.6865 9.878 19.5505 9.3935 36.2937 9.3935s52.2409-.7883 65.1843-2.3815 7.5702-21.2012-4.2888-15.2474z"/><path d="m777.2778 53.2523c14.0722-31.3644-15.8741-45.6247-31.2042-15.8642 17.0413-49.1545-58.8486-47.881-42.4984-2.968-18.0364-26.5073-40.2825-.8387-22.3464 21.5669-5.9574-12.1382-26.2071.6961-10.3512 8.4328 11.5657 5.6434 34.2939 3.8363 50.1461 3.8363s63.9479 5.2535 73.7194-.9819c17.1607-10.9506-5.104-32.2668-17.4653-14.0219z"/></g></svg>