<svg viewBox="0 0 100 68" xmlns="http://www.w3.org/2000/svg"><path d="m41.6124 22.63s-6.566-7.0151-11.6861-12.1352 4.2789-11.2812 11.6861-3.8741 16.679 16.0093 16.679 16.0093z" fill="#2091eb"/><path d="m41.6124 6.6207c-7.4071-7.4071-16.8062-1.2464-11.6861 3.8737.7726.7725 1.5787 1.59 2.39 2.4179h15.7171c-2.1245-2.0487-4.3442-4.2147-6.421-6.2916z" fill="#f1c933"/><path d="m39.6125 41.6764h-18.2489c-6.0922 0-6.5245-9.3532-16.2866-19.1154-5.3114-5.311 1.353-12.7341 8.5893-5.498 3.5552 3.5552 6.2537 5.567 10.875 5.567h59.5081c17.9575 0 16.3306 19.0469-.8028 19.0469h-20.6382c-5.8156 0-10.4505 7.805-19.3151 16.67-12.62 12.62-24.4962 4.3907-15.5006-4.6049 6.5536-6.5546 11.8198-12.0656 11.8198-12.0656z" fill="#2091eb"/><path d="m84.0493 22.63h-59.508c-4.6216 0-7.32-2.0114-10.875-5.5667-7.2363-7.2363-13.9006.1867-8.5893 5.4977a48.6212 48.6212 0 0 1 7.1411 9.1948h84.5919c.057-4.6258-4.0318-9.1258-12.7607-9.1258z" fill="#f1c933"/><path d="m11.4979 28.2293h84.8214v2.3733h-84.8214z" fill="#fff"/><g fill="#2e2e2e"><path d="m94.4214 24.5027c-2.5007-1.9954-6.0874-3.05-10.3719-3.05h-25.295c-1.69-1.5739-9.7673-9.1216-16.31-15.6642-3.113-3.1136-7.0572-4.4128-10.553-3.4775a5.9553 5.9553 0 0 0 -4.453 3.97 5.1644 5.1644 0 0 0 1.6551 5.0457c3.3991 3.3993 7.47 7.6714 9.7918 10.1259h-14.3442c-4.0994 0-6.5047-1.6838-10.0425-5.2216-4.3437-4.344-8.7053-3.9358-10.9215-1.721-1.9913 1.9914-2.4346 5.7815.6675 8.8835a53.5214 53.5214 0 0 1 8.6984 11.8865c2.4553 4.2311 4.3949 7.5735 8.42 7.5735h15.5969c-3.4188 3.4481-7.2032 7.2578-10 10.0545a11.1807 11.1807 0 0 0 -3.4171 5.9879 5.748 5.748 0 0 0 1.5771 5.0593 7.6694 7.6694 0 0 0 5.5423 2.0317 12.4267 12.4267 0 0 0 2.5036-.2656c2.5375-.522 6.499-2.0811 10.96-6.5427 2.5674-2.5668 4.7945-5.0595 6.76-7.2584 4.7042-5.2635 8.1029-9.0663 11.7229-9.0663h20.638c9.5832 0 14.7532-5.7678 14.7532-11.1939a9.0658 9.0658 0 0 0 -3.5786-7.1573zm-63.6629-14.841a2.97 2.97 0 0 1 -1.0451-2.7717 3.7136 3.7136 0 0 1 2.7876-2.305c2.6737-.7158 5.7665.3564 8.2787 2.868 5.1876 5.188 11.3313 11 14.5279 13.9994h-13.186c-1.4216-1.5132-6.954-7.3817-11.3631-11.7907zm52.4879 30.8375h-20.638c-4.6732 0-8.3668 4.1322-13.4786 9.8522-1.9448 2.1759-4.1489 4.6415-6.6691 7.1624-7.0543 7.0514-13.4147 7.0393-15.6763 4.776-1.785-1.7844-1.0624-4.8134 1.8407-7.7165 6.5554-6.5553 17.3231-17.4616 18.5335-18.672 1.4863-1.4863-.447-2.8827-1.6741-1.6556s-2.676 2.7071-6.19 6.2535h-17.9312c-2.5559 0-3.8752-2.0782-6.3834-6.4007a55.5442 55.5442 0 0 0 -9.07-12.37c-2.042-2.042-1.881-4.34-.6674-5.5533 1.4625-1.4625 4.3742-1.4976 7.5918 1.72 3.8338 3.8339 6.8347 5.9115 11.7073 5.9115h59.5084c3.7453 0 6.8238.8767 8.9031 2.5357a6.7562 6.7562 0 0 1 2.6922 5.3176c0 4.3925-4.2587 8.8392-12.3989 8.8392z"/><path d="m69.48 34.0956a2.3513 2.3513 0 0 1 -2.3547-2.3547 2.5941 2.5941 0 0 1 .1765-.906 2.1928 2.1928 0 0 1 .2121-.4007 3.1371 3.1371 0 0 1 .2944-.365 2.4512 2.4512 0 0 1 3.332 0 2.3457 2.3457 0 0 1 0 3.332 2.1086 2.1086 0 0 1 -.3536.2943 2.8488 2.8488 0 0 1 -.8474.3536 3.0428 3.0428 0 0 1 -.4593.0465z"/><path d="m80.0765 34.0956a2.3642 2.3642 0 0 1 -1.6717-4.0264 2.4513 2.4513 0 0 1 3.332 0 2.2449 2.2449 0 0 1 .2943.365 2.1928 2.1928 0 0 1 .2121.4007 2.812 2.812 0 0 1 .1409.4473 2.8907 2.8907 0 0 1 .0471.4587 2.371 2.371 0 0 1 -2.3547 2.3547z"/></g></svg>